<svg width="21" height="25" viewBox="0 0 21 25" fill="none" xmlns="http://www.w3.org/2000/svg">
<g clip-path="url(#clip0_462_470)" filter="url(#filter0_d_462_470)">
<g filter="url(#filter1_d_462_470)">
<path d="M6.20222 1.79982C5.64062 1.79982 5.14472 2.19402 5.04122 2.76102C4.90802 3.49722 4.69922 4.80762 4.69922 5.84982C4.69922 6.95772 5.27162 7.93152 6.13472 8.49222C6.37862 8.65152 6.49922 8.85672 6.49922 9.03222V9.40122C6.49922 9.41742 6.49832 9.43362 6.49652 9.44982C6.47222 9.68382 6.36062 10.7359 6.25532 11.8177C6.15182 12.8842 6.04922 14.0227 6.04922 14.3998C6.04922 14.8772 6.23886 15.335 6.57643 15.6726C6.91399 16.0102 7.37183 16.1998 7.84922 16.1998C8.32661 16.1998 8.78445 16.0102 9.12201 15.6726C9.45958 15.335 9.64922 14.8772 9.64922 14.3998C9.64922 14.0218 9.54662 12.8842 9.44312 11.8177C9.36617 11.0284 9.28577 10.2394 9.20192 9.45072L9.19922 9.40122V9.03222C9.19922 8.85582 9.31982 8.65062 9.56372 8.49222C10.0043 8.20636 10.3664 7.81488 10.6171 7.35338C10.8679 6.89188 10.9992 6.37502 10.9992 5.84982C10.9992 4.80762 10.7904 3.49722 10.6572 2.76102C10.6072 2.49007 10.4635 2.24533 10.2512 2.06962C10.039 1.89391 9.77175 1.79841 9.49622 1.79982C9.19022 1.79982 8.91122 1.91412 8.70062 2.10222C8.45997 1.90662 8.15933 1.79984 7.84922 1.79982C7.52612 1.79982 7.23002 1.91322 6.99782 2.10222C6.7793 1.90683 6.49536 1.79912 6.20222 1.79982ZM7.39922 3.14982C7.39922 3.03047 7.44663 2.91601 7.53102 2.83162C7.61541 2.74723 7.72987 2.69982 7.84922 2.69982C7.96857 2.69982 8.08303 2.74723 8.16742 2.83162C8.25181 2.91601 8.29922 3.03047 8.29922 3.14982V5.84982C8.29922 5.96917 8.34663 6.08363 8.43102 6.16802C8.51541 6.25241 8.62987 6.29982 8.74922 6.29982C8.86857 6.29982 8.98303 6.25241 9.06742 6.16802C9.15181 6.08363 9.19922 5.96917 9.19922 5.84982V2.99682C9.19922 2.95782 9.2069 2.9192 9.22183 2.88316C9.23675 2.84713 9.25863 2.81439 9.28621 2.78681C9.31379 2.75923 9.34653 2.73735 9.38256 2.72243C9.4186 2.7075 9.45722 2.69982 9.49622 2.69982C9.63752 2.69982 9.74822 2.79702 9.77162 2.92212C9.90392 3.65382 10.0992 4.89492 10.0992 5.84982C10.0993 6.22515 10.0054 6.59453 9.82621 6.92433C9.64701 7.25412 9.38816 7.53384 9.07322 7.73802C8.67812 7.99452 8.29922 8.44542 8.29922 9.03222V9.40122C8.29922 9.44922 8.30162 9.49722 8.30642 9.54522C8.33162 9.77742 8.44232 10.8268 8.54762 11.905C8.65382 12.9985 8.74922 14.0785 8.74922 14.3998C8.74922 14.6385 8.6544 14.8674 8.48561 15.0362C8.31683 15.205 8.08791 15.2998 7.84922 15.2998C7.61052 15.2998 7.38161 15.205 7.21282 15.0362C7.04404 14.8674 6.94922 14.6385 6.94922 14.3998C6.94922 14.0785 7.04462 12.9985 7.15082 11.905C7.25612 10.8268 7.36682 9.77742 7.39202 9.54522C7.39682 9.49722 7.39922 9.44922 7.39922 9.40122V9.03222C7.39922 8.44542 7.02032 7.99452 6.62522 7.73802C6.31028 7.53384 6.05143 7.25412 5.87223 6.92433C5.69303 6.59453 5.59918 6.22515 5.59922 5.84982C5.59922 4.89582 5.79452 3.65382 5.92682 2.92212C5.93915 2.85838 5.97367 2.80106 6.02425 2.76036C6.07484 2.71967 6.13821 2.69821 6.20312 2.69982C6.28173 2.70006 6.35704 2.73145 6.41255 2.78713C6.46805 2.8428 6.49922 2.91821 6.49922 2.99682V5.84982C6.49922 5.96917 6.54663 6.08363 6.63102 6.16802C6.71541 6.25241 6.82987 6.29982 6.94922 6.29982C7.06857 6.29982 7.18303 6.25241 7.26742 6.16802C7.35181 6.08363 7.39922 5.96917 7.39922 5.84982V3.14982ZM11.8992 5.84982C11.8992 4.77569 12.3259 3.74556 13.0854 2.98604C13.845 2.22652 14.8751 1.79982 15.9492 1.79982C16.0686 1.79982 16.183 1.84723 16.2674 1.93162C16.3518 2.01601 16.3992 2.13047 16.3992 2.24982V8.53002L16.4172 8.73162C16.4874 9.54027 16.5558 10.3491 16.6224 11.158C16.734 12.5143 16.8492 14.0029 16.8492 14.3998C16.8492 14.8772 16.6596 15.335 16.322 15.6726C15.9844 16.0102 15.5266 16.1998 15.0492 16.1998C14.5718 16.1998 14.114 16.0102 13.7764 15.6726C13.4389 15.335 13.2492 14.8772 13.2492 14.3998C13.2492 14.0038 13.3644 12.5143 13.476 11.158C13.5318 10.4731 13.5885 9.81072 13.6308 9.32022L13.6578 8.99982H13.2492C12.8912 8.99982 12.5478 8.85759 12.2946 8.60441C12.0415 8.35124 11.8992 8.00786 11.8992 7.64982V5.84982ZM14.5974 8.58942L14.5785 8.80992L14.5272 9.39762C14.4849 9.88722 14.4282 10.5478 14.3724 11.2318C14.259 12.6151 14.1492 14.0506 14.1492 14.3998C14.1492 14.6385 14.244 14.8674 14.4128 15.0362C14.5816 15.205 14.8105 15.2998 15.0492 15.2998C15.2879 15.2998 15.5168 15.205 15.6856 15.0362C15.8544 14.8674 15.9492 14.6385 15.9492 14.3998C15.9492 14.0506 15.8394 12.6151 15.726 11.2318C15.6592 10.4244 15.5905 9.61705 15.5199 8.80992L15.501 8.59032V8.58942L15.4992 8.54982V2.73132C14.7494 2.83955 14.0637 3.2144 13.5678 3.78716C13.0719 4.35992 12.799 5.09221 12.7992 5.84982V7.64982C12.7992 7.76917 12.8466 7.88363 12.931 7.96802C13.0154 8.05241 13.1299 8.09982 13.2492 8.09982H14.1492C14.2116 8.09983 14.2734 8.11282 14.3305 8.13799C14.3877 8.16315 14.4389 8.19992 14.4811 8.24597C14.5232 8.29201 14.5554 8.34633 14.5754 8.40546C14.5954 8.46459 14.6029 8.52723 14.5974 8.58942Z" fill="#FFFDFB"/>
</g>
</g>
<defs>
<filter id="filter0_d_462_470" x="-2" y="0" width="26" height="26" filterUnits="userSpaceOnUse" color-interpolation-filters="sRGB">
<feFlood flood-opacity="0" result="BackgroundImageFix"/>
<feColorMatrix in="SourceAlpha" type="matrix" values="0 0 0 0 0 0 0 0 0 0 0 0 0 0 0 0 0 0 127 0" result="hardAlpha"/>
<feOffset dy="4"/>
<feGaussianBlur stdDeviation="2"/>
<feComposite in2="hardAlpha" operator="out"/>
<feColorMatrix type="matrix" values="0 0 0 0 0 0 0 0 0 0 0 0 0 0 0 0 0 0 0.25 0"/>
<feBlend mode="normal" in2="BackgroundImageFix" result="effect1_dropShadow_462_470"/>
<feBlend mode="normal" in="SourceGraphic" in2="effect1_dropShadow_462_470" result="shape"/>
</filter>
<filter id="filter1_d_462_470" x="0.699219" y="1.7998" width="20.1504" height="22.4004" filterUnits="userSpaceOnUse" color-interpolation-filters="sRGB">
<feFlood flood-opacity="0" result="BackgroundImageFix"/>
<feColorMatrix in="SourceAlpha" type="matrix" values="0 0 0 0 0 0 0 0 0 0 0 0 0 0 0 0 0 0 127 0" result="hardAlpha"/>
<feOffset dy="4"/>
<feGaussianBlur stdDeviation="2"/>
<feComposite in2="hardAlpha" operator="out"/>
<feColorMatrix type="matrix" values="0 0 0 0 0 0 0 0 0 0 0 0 0 0 0 0 0 0 0.25 0"/>
<feBlend mode="normal" in2="BackgroundImageFix" result="effect1_dropShadow_462_470"/>
<feBlend mode="normal" in="SourceGraphic" in2="effect1_dropShadow_462_470" result="shape"/>
</filter>
<clipPath id="clip0_462_470">
<rect width="18" height="18" fill="white" transform="translate(2)"/>
</clipPath>
</defs>
</svg>
