<svg width="26" height="26" viewBox="0 0 26 26" fill="none" xmlns="http://www.w3.org/2000/svg">
<g clip-path="url(#clip0_462_603)" filter="url(#filter0_d_462_603)">
<g filter="url(#filter1_d_462_603)">
<path d="M13 4.896V2.25C13 2.05109 13.079 1.86032 13.2197 1.71967C13.3603 1.57902 13.5511 1.5 13.75 1.5" stroke="#FFFDFB" stroke-width="2" stroke-linecap="round" stroke-linejoin="round"/>
<path d="M17.6778 15.7499C19.5072 13.6811 20.5117 11.0116 20.5 8.2499C20.5 7.38122 20.2485 6.53111 19.776 5.80219C19.3035 5.07327 18.6301 4.49669 17.8371 4.14206C17.0441 3.78743 16.1654 3.66991 15.3071 3.80367C14.4488 3.93744 13.6475 4.31678 13 4.8959C12.3525 4.31678 11.5513 3.93744 10.693 3.80367C9.83464 3.66991 8.95594 3.78743 8.16295 4.14206C7.36995 4.49669 6.69654 5.07327 6.22401 5.80219C5.75149 6.53111 5.50004 7.38122 5.50002 8.2499C5.49528 11.0103 6.49891 13.6774 8.32227 15.7499C8.65805 16.1255 9.11019 16.3776 9.60627 16.4657C10.1024 16.5539 10.6137 16.4729 11.0583 16.2359C11.6558 15.9171 12.3227 15.7503 13 15.7503C13.6773 15.7503 14.3442 15.9171 14.9418 16.2359C15.3864 16.4729 15.8977 16.5539 16.3938 16.4657C16.8898 16.3776 17.342 16.1255 17.6778 15.7499Z" stroke="#FFFDFB" stroke-width="2" stroke-linecap="round" stroke-linejoin="round"/>
</g>
</g>
<defs>
<filter id="filter0_d_462_603" x="0" y="0" width="26" height="26" filterUnits="userSpaceOnUse" color-interpolation-filters="sRGB">
<feFlood flood-opacity="0" result="BackgroundImageFix"/>
<feColorMatrix in="SourceAlpha" type="matrix" values="0 0 0 0 0 0 0 0 0 0 0 0 0 0 0 0 0 0 127 0" result="hardAlpha"/>
<feOffset dy="4"/>
<feGaussianBlur stdDeviation="2"/>
<feComposite in2="hardAlpha" operator="out"/>
<feColorMatrix type="matrix" values="0 0 0 0 0 0 0 0 0 0 0 0 0 0 0 0 0 0 0.25 0"/>
<feBlend mode="normal" in2="BackgroundImageFix" result="effect1_dropShadow_462_603"/>
<feBlend mode="normal" in="SourceGraphic" in2="effect1_dropShadow_462_603" result="shape"/>
</filter>
<filter id="filter1_d_462_603" x="0.5" y="0.5" width="25" height="25" filterUnits="userSpaceOnUse" color-interpolation-filters="sRGB">
<feFlood flood-opacity="0" result="BackgroundImageFix"/>
<feColorMatrix in="SourceAlpha" type="matrix" values="0 0 0 0 0 0 0 0 0 0 0 0 0 0 0 0 0 0 127 0" result="hardAlpha"/>
<feOffset dy="4"/>
<feGaussianBlur stdDeviation="2"/>
<feComposite in2="hardAlpha" operator="out"/>
<feColorMatrix type="matrix" values="0 0 0 0 0 0 0 0 0 0 0 0 0 0 0 0 0 0 0.25 0"/>
<feBlend mode="normal" in2="BackgroundImageFix" result="effect1_dropShadow_462_603"/>
<feBlend mode="normal" in="SourceGraphic" in2="effect1_dropShadow_462_603" result="shape"/>
</filter>
<clipPath id="clip0_462_603">
<rect width="18" height="18" fill="white" transform="translate(4)"/>
</clipPath>
</defs>
</svg>
